<svg xmlns="http://www.w3.org/2000/svg" width="124" height="15" viewBox="0 0 124 15">
  <path d="M0.368,0.548 L5.384,0.548 C5.96666958,0.548 6.55249705,0.589166255 7.1415,0.6715 C7.73050295,0.753833745 8.25933099,0.918498765 8.728,1.1655 C9.19666901,1.41250124 9.57666521,1.75766445 9.868,2.201 C10.1593348,2.64433555 10.305,3.23332966 10.305,3.968 C10.305,4.7280038 10.0928355,5.35816417 9.6685,5.8585 C9.24416455,6.35883584 8.68367015,6.71666559 7.987,6.932 L7.987,6.97 C8.43033555,7.03333365 8.83249819,7.15683242 9.1935,7.3405 C9.5545018,7.52416759 9.86483203,7.75849857 10.1245,8.0435 C10.384168,8.32850142 10.583666,8.6609981 10.723,9.041 C10.862334,9.4210019 10.932,9.82633118 10.932,10.257 C10.932,10.9663369 10.7800015,11.5584976 10.476,12.0335 C10.1719985,12.5085024 9.77933574,12.8916652 9.298,13.183 C8.81666426,13.4743348 8.27516968,13.6833327 7.6735,13.81 C7.07183033,13.9366673 6.47333631,14 5.878,14 L0.368,14 L0.368,0.548 Z M3.332,5.925 L5.479,5.925 C5.70700114,5.925 5.93183222,5.89966692 6.1535,5.849 C6.37516777,5.79833308 6.57466578,5.71600057 6.752,5.602 C6.92933422,5.48799943 7.07183279,5.33600095 7.1795,5.146 C7.2871672,4.95599905 7.341,4.72800133 7.341,4.462 C7.341,4.18333194 7.28083394,3.95216758 7.1605,3.7685 C7.04016606,3.58483242 6.88500095,3.44233384 6.695,3.341 C6.50499905,3.23966616 6.28966787,3.16683356 6.049,3.1225 C5.80833213,3.07816645 5.57400114,3.056 5.346,3.056 L3.332,3.056 L3.332,5.925 Z M3.332,11.492 L5.992,11.492 C6.22000114,11.492 6.45116549,11.4666669 6.6855,11.416 C6.9198345,11.3653331 7.13199905,11.2766673 7.322,11.15 C7.51200095,11.0233327 7.66716606,10.8586677 7.7875,10.656 C7.90783393,10.4533323 7.968,10.2063348 7.968,9.915 C7.968,9.59833175 7.88883412,9.34183431 7.7305,9.1455 C7.57216587,8.94916568 7.37266787,8.80033384 7.132,8.699 C6.89133213,8.59766616 6.63166806,8.52800019 6.353,8.49 C6.07433194,8.45199981 5.81466787,8.433 5.574,8.433 L3.332,8.433 L3.332,11.492 Z M11.958,7.274 C11.958,6.19732795 12.1384982,5.22200437 12.4995,4.348 C12.8605018,3.47399563 13.3639968,2.72983641 14.01,2.1155 C14.6560032,1.5011636 15.4223289,1.02933498 16.309,0.7 C17.1956711,0.37066502 18.1646614,0.206 19.216,0.206 C20.2673386,0.206 21.2363289,0.37066502 22.123,0.7 C23.0096711,1.02933498 23.7759968,1.5011636 24.422,2.1155 C25.0680032,2.72983641 25.5714982,3.47399563 25.9325,4.348 C26.2935018,5.22200437 26.474,6.19732795 26.474,7.274 C26.474,8.35067205 26.2935018,9.32599563 25.9325,10.2 C25.5714982,11.0740044 25.0680032,11.8181636 24.422,12.4325 C23.7759968,13.0468364 23.0096711,13.518665 22.123,13.848 C21.2363289,14.177335 20.2673386,14.342 19.216,14.342 C18.1646614,14.342 17.1956711,14.177335 16.309,13.848 C15.4223289,13.518665 14.6560032,13.0468364 14.01,12.4325 C13.3639968,11.8181636 12.8605018,11.0740044 12.4995,10.2 C12.1384982,9.32599563 11.958,8.35067205 11.958,7.274 Z M15.036,7.274 C15.036,7.9073365 15.1341657,8.48683071 15.3305,9.0125 C15.5268343,9.53816929 15.8086648,9.99416473 16.176,10.3805 C16.5433352,10.7668353 16.9834974,11.0676656 17.4965,11.283 C18.0095026,11.4983344 18.5826635,11.606 19.216,11.606 C19.8493365,11.606 20.4224974,11.4983344 20.9355,11.283 C21.4485026,11.0676656 21.8886648,10.7668353 22.256,10.3805 C22.6233352,9.99416473 22.9051657,9.53816929 23.1015,9.0125 C23.2978343,8.48683071 23.396,7.9073365 23.396,7.274 C23.396,6.65333023 23.2978343,6.07700266 23.1015,5.545 C22.9051657,5.01299734 22.6233352,4.55383527 22.256,4.1675 C21.8886648,3.78116474 21.4485026,3.48033441 20.9355,3.265 C20.4224974,3.04966559 19.8493365,2.942 19.216,2.942 C18.5826635,2.942 18.0095026,3.04966559 17.4965,3.265 C16.9834974,3.48033441 16.5433352,3.78116474 16.176,4.1675 C15.8086648,4.55383527 15.5268343,5.01299734 15.3305,5.545 C15.1341657,6.07700266 15.036,6.65333023 15.036,7.274 Z M27.766,7.274 C27.766,6.19732795 27.9464982,5.22200437 28.3075,4.348 C28.6685018,3.47399563 29.1719968,2.72983641 29.818,2.1155 C30.4640032,1.5011636 31.2303289,1.02933498 32.117,0.7 C33.0036711,0.37066502 33.9726614,0.206 35.024,0.206 C36.0753386,0.206 37.0443289,0.37066502 37.931,0.7 C38.8176711,1.02933498 39.5839968,1.5011636 40.23,2.1155 C40.8760032,2.72983641 41.3794982,3.47399563 41.7405,4.348 C42.1015018,5.22200437 42.282,6.19732795 42.282,7.274 C42.282,8.35067205 42.1015018,9.32599563 41.7405,10.2 C41.3794982,11.0740044 40.8760032,11.8181636 40.23,12.4325 C39.5839968,13.0468364 38.8176711,13.518665 37.931,13.848 C37.0443289,14.177335 36.0753386,14.342 35.024,14.342 C33.9726614,14.342 33.0036711,14.177335 32.117,13.848 C31.2303289,13.518665 30.4640032,13.0468364 29.818,12.4325 C29.1719968,11.8181636 28.6685018,11.0740044 28.3075,10.2 C27.9464982,9.32599563 27.766,8.35067205 27.766,7.274 Z M30.844,7.274 C30.844,7.9073365 30.9421657,8.48683071 31.1385,9.0125 C31.3348343,9.53816929 31.6166648,9.99416473 31.984,10.3805 C32.3513352,10.7668353 32.7914974,11.0676656 33.3045,11.283 C33.8175026,11.4983344 34.3906635,11.606 35.024,11.606 C35.6573365,11.606 36.2304974,11.4983344 36.7435,11.283 C37.2565026,11.0676656 37.6966648,10.7668353 38.064,10.3805 C38.4313352,9.99416473 38.7131657,9.53816929 38.9095,9.0125 C39.1058343,8.48683071 39.204,7.9073365 39.204,7.274 C39.204,6.65333023 39.1058343,6.07700266 38.9095,5.545 C38.7131657,5.01299734 38.4313352,4.55383527 38.064,4.1675 C37.6966648,3.78116474 37.2565026,3.48033441 36.7435,3.265 C36.2304974,3.04966559 35.6573365,2.942 35.024,2.942 C34.3906635,2.942 33.8175026,3.04966559 33.3045,3.265 C32.7914974,3.48033441 32.3513352,3.78116474 31.984,4.1675 C31.6166648,4.55383527 31.3348343,5.01299734 31.1385,5.545 C30.9421657,6.07700266 30.844,6.65333023 30.844,7.274 Z M44.41,0.548 L47.374,0.548 L47.374,6.134 L52.599,0.548 L56.475,0.548 L50.49,6.799 L56.988,14 L52.846,14 L47.374,7.616 L47.374,14 L44.41,14 L44.41,0.548 Z M70.288,3.835 C70.0473321,3.53099848 69.7211687,3.30616739 69.3095,3.1605 C68.8978313,3.01483261 68.5083352,2.942 68.141,2.942 C67.9256656,2.942 67.7040011,2.96733308 67.476,3.018 C67.2479989,3.06866692 67.0326677,3.14783279 66.83,3.2555 C66.6273323,3.3631672 66.4626673,3.50566578 66.336,3.683 C66.2093327,3.86033422 66.146,4.0756654 66.146,4.329 C66.146,4.73433536 66.2979985,5.04466559 66.602,5.26 C66.9060015,5.47533441 67.2891644,5.65899924 67.7515,5.811 C68.2138356,5.96300076 68.7109973,6.11499924 69.243,6.267 C69.7750027,6.41900076 70.2721644,6.63433194 70.7345,6.913 C71.1968356,7.19166806 71.5799985,7.56533099 71.884,8.034 C72.1880015,8.50266901 72.34,9.12966274 72.34,9.915 C72.34,10.6623371 72.2006681,11.3146639 71.922,11.872 C71.6433319,12.4293361 71.2665024,12.8916648 70.7915,13.259 C70.3164976,13.6263352 69.7655031,13.8986658 69.1385,14.076 C68.5114969,14.2533342 67.8496702,14.342 67.153,14.342 C66.2789956,14.342 65.4683371,14.2090013 64.721,13.943 C63.9736629,13.6769987 63.2770032,13.2463363 62.631,12.651 L64.74,10.333 C65.0440015,10.7383354 65.4271644,11.0518322 65.8895,11.2735 C66.3518356,11.4951678 66.8299975,11.606 67.324,11.606 C67.5646679,11.606 67.8084988,11.5775003 68.0555,11.5205 C68.3025012,11.4634997 68.5241657,11.3780006 68.7205,11.264 C68.9168343,11.1499994 69.0751661,11.0043342 69.1955,10.827 C69.3158339,10.6496658 69.376,10.4406679 69.376,10.2 C69.376,9.79466464 69.2208349,9.47483451 68.9105,9.2405 C68.6001651,9.00616549 68.210669,8.80666749 67.742,8.642 C67.273331,8.47733251 66.7666694,8.31266749 66.222,8.148 C65.6773306,7.98333251 65.170669,7.76166806 64.702,7.483 C64.233331,7.20433194 63.8438349,6.83700228 63.5335,6.381 C63.2231651,5.92499772 63.068,5.32333707 63.068,4.576 C63.068,3.85399639 63.2104986,3.22066939 63.4955,2.676 C63.7805014,2.13133061 64.1604976,1.67533517 64.6355,1.308 C65.1105024,0.94066483 65.6583302,0.665167585 66.279,0.4815 C66.8996698,0.297832415 67.53933,0.206 68.198,0.206 C68.9580038,0.206 69.6926631,0.31366559 70.402,0.529 C71.1113369,0.74433441 71.7509972,1.1053308 72.321,1.612 L70.288,3.835 Z M77.147,3.17 L73.309,3.17 L73.309,0.548 L83.949,0.548 L83.949,3.17 L80.111,3.17 L80.111,14 L77.147,14 L77.147,3.17 Z M84.728,7.274 C84.728,6.19732795 84.9084982,5.22200437 85.2695,4.348 C85.6305018,3.47399563 86.1339968,2.72983641 86.78,2.1155 C87.4260032,1.5011636 88.1923289,1.02933498 89.079,0.7 C89.9656711,0.37066502 90.9346614,0.206 91.986,0.206 C93.0373386,0.206 94.0063289,0.37066502 94.893,0.7 C95.7796711,1.02933498 96.5459968,1.5011636 97.192,2.1155 C97.8380032,2.72983641 98.3414982,3.47399563 98.7025,4.348 C99.0635018,5.22200437 99.244,6.19732795 99.244,7.274 C99.244,8.35067205 99.0635018,9.32599563 98.7025,10.2 C98.3414982,11.0740044 97.8380032,11.8181636 97.192,12.4325 C96.5459968,13.0468364 95.7796711,13.518665 94.893,13.848 C94.0063289,14.177335 93.0373386,14.342 91.986,14.342 C90.9346614,14.342 89.9656711,14.177335 89.079,13.848 C88.1923289,13.518665 87.4260032,13.0468364 86.78,12.4325 C86.1339968,11.8181636 85.6305018,11.0740044 85.2695,10.2 C84.9084982,9.32599563 84.728,8.35067205 84.728,7.274 Z M87.806,7.274 C87.806,7.9073365 87.9041657,8.48683071 88.1005,9.0125 C88.2968343,9.53816929 88.5786648,9.99416473 88.946,10.3805 C89.3133352,10.7668353 89.7534974,11.0676656 90.2665,11.283 C90.7795026,11.4983344 91.3526635,11.606 91.986,11.606 C92.6193365,11.606 93.1924974,11.4983344 93.7055,11.283 C94.2185026,11.0676656 94.6586648,10.7668353 95.026,10.3805 C95.3933352,9.99416473 95.6751657,9.53816929 95.8715,9.0125 C96.0678343,8.48683071 96.166,7.9073365 96.166,7.274 C96.166,6.65333023 96.0678343,6.07700266 95.8715,5.545 C95.6751657,5.01299734 95.3933352,4.55383527 95.026,4.1675 C94.6586648,3.78116474 94.2185026,3.48033441 93.7055,3.265 C93.1924974,3.04966559 92.6193365,2.942 91.986,2.942 C91.3526635,2.942 90.7795026,3.04966559 90.2665,3.265 C89.7534974,3.48033441 89.3133352,3.78116474 88.946,4.1675 C88.5786648,4.55383527 88.2968343,5.01299734 88.1005,5.545 C87.9041657,6.07700266 87.806,6.65333023 87.806,7.274 Z M101.258,0.548 L106.464,0.548 C107.148003,0.548 107.797164,0.614499335 108.4115,0.7475 C109.025836,0.880500665 109.564164,1.10216512 110.0265,1.4125 C110.488836,1.72283489 110.856165,2.1408307 111.1285,2.6665 C111.400835,3.19216929 111.537,3.84766274 111.537,4.633 C111.537,5.58300475 111.290002,6.39049668 110.796,7.0555 C110.301998,7.72050333 109.580005,8.14166578 108.63,8.319 L112.05,14 L108.497,14 L105.685,8.623 L104.222,8.623 L104.222,14 L101.258,14 L101.258,0.548 Z M104.222,6.115 L105.97,6.115 C106.236001,6.115 106.517832,6.1055001 106.8155,6.0865 C107.113168,6.0674999 107.382332,6.01050048 107.623,5.9155 C107.863668,5.82049952 108.063166,5.67166768 108.2215,5.469 C108.379834,5.26633232 108.459,4.98133517 108.459,4.614 C108.459,4.27199829 108.389334,3.99966768 108.25,3.797 C108.110666,3.59433232 107.933334,3.43916721 107.718,3.3315 C107.502666,3.22383279 107.255668,3.15100019 106.977,3.113 C106.698332,3.07499981 106.426001,3.056 106.16,3.056 L104.222,3.056 L104.222,6.115 Z M113.684,0.548 L122.823,0.548 L122.823,3.284 L116.648,3.284 L116.648,5.792 L122.481,5.792 L122.481,8.528 L116.648,8.528 L116.648,11.264 L123.165,11.264 L123.165,14 L113.684,14 L113.684,0.548 Z"/>
</svg>
